<mxfile host="app.diagrams.net" modified="2023-10-09T13:13:17.779Z" agent="Mozilla/5.0 (Linux; U; Android 13; id-id; Redmi Note 11 Build/TKQ1.221114.001) AppleWebKit/537.36 (KHTML, like Gecko) Version/4.0 Chrome/100.0.4896.127 Mobile Safari/537.36 XiaoMi/MiuiBrowser/13.25.2.2-gn" version="22.0.4" etag="ucOAqgIW7BndW1otHGg0" type="github">
  <diagram name="Halaman-1" id="EOz6L5tgmkOJFt-bbpki">
    <mxGraphModel>
      <root>
        <mxCell id="0" />
        <mxCell id="1" parent="0" />
      </root>
    </mxGraphModel>
  </diagram>
</mxfile>
